    <svg xmlns="http://www.w3.org/2000/svg" version="1.1" xmlns:xlink="http://www.w3.org/1999/xlink" xmlns:svgjs="http://svgjs.dev/svgjs" viewBox="0 0 800 800" opacity="0.77"><defs><filter id="bbburst-blur-1" x="-100%" y="-100%" width="400%" height="400%"><feGaussianBlur in="SourceGraphic" stdDeviation="1"></feGaussianBlur></filter><filter id="bbburst-blur-2" x="-100%" y="-100%" width="400%" height="400%"><feGaussianBlur in="SourceGraphic" stdDeviation="2"></feGaussianBlur></filter><filter id="bbburst-blur-3" x="-100%" y="-100%" width="400%" height="400%"><feGaussianBlur in="SourceGraphic" stdDeviation="4"></feGaussianBlur></filter><filter id="bbburst-blur-4" x="-100%" y="-100%" width="400%" height="400%"><feGaussianBlur in="SourceGraphic" stdDeviation="12"></feGaussianBlur></filter><symbol id="bbburst-shape-1" viewBox="0 0 194 167"><path d="m97 0 96.129 166.5H.871L97 0Z"></path></symbol></defs><use xlink:href="#bbburst-shape-1" width="41.12022076887489" opacity="0.5496949204486307" transform="matrix(0.8603689757450657,0.5096716841020174,-0.5096716841020174,0.8603689757450657,241.24799025030174,-1.5027471624520672)" fill="#d7ceff" filter="url(#bbburst-blur-1)"></use><use xlink:href="#bbburst-shape-1" width="63.12229807792969" opacity="0.35176840878850146" transform="matrix(0.7553402990375105,-0.6553327648225169,0.6553327648225169,0.7553402990375105,301.55263788664087,244.59919916868392)" fill="#edebfc" filter="url(#bbburst-blur-2)"></use><use xlink:href="#bbburst-shape-1" width="24.09834791310599" opacity="0.8341969789345134" transform="matrix(0.9518473351880401,-0.30657242292063214,0.30657242292063214,0.9518473351880401,-97.24336469435632,261.32725186907146)" fill="#d7ceff"></use><use xlink:href="#bbburst-shape-1" width="46.96204936560505" opacity="0.19152281950968164" transform="matrix(0.9965077101433976,-0.0835008001444439,0.0835008001444439,0.9965077101433976,285.71755955476,-328.9215002747452)" fill="#edebfc" filter="url(#bbburst-blur-3)"></use><use xlink:href="#bbburst-shape-1" width="79.54340980401525" opacity="0.2357677322117827" transform="matrix(0.9858528853673407,0.16761291242887258,-0.16761291242887258,0.9858528853673407,610.9056351955901,-94.93152561243193)" fill="#edebfc" filter="url(#bbburst-blur-3)"></use><use xlink:href="#bbburst-shape-1" width="43.589633657926555" opacity="0.7008305734519411" transform="matrix(0.9298761908503388,-0.36787262699155043,0.36787262699155043,0.9298761908503388,-23.507710379863312,173.82413976617698)" fill="#edebfc"></use><use xlink:href="#bbburst-shape-1" width="32.54373994583479" opacity="0.7991472005292204" transform="matrix(0.9727182810689815,0.23198953785506343,-0.23198953785506343,0.9727182810689815,246.366035003766,299.2766798729185)" fill="#32114e"></use><use xlink:href="#bbburst-shape-1" width="15.080769225530943" opacity="0.9739459561637992" transform="matrix(0.978406346643347,0.20669064044609894,-0.20669064044609894,0.978406346643347,92.63040753234984,387.6483970095967)" fill="#d7ceff"></use><use xlink:href="#bbburst-shape-1" width="64.32991800828475" opacity="0.25765528977024654" transform="matrix(0.8578246832184583,0.5139424217372522,-0.5139424217372522,0.8578246832184583,286.408753684686,-293.96747968504326)" fill="#7c7c7c" filter="url(#bbburst-blur-2)"></use><use xlink:href="#bbburst-shape-1" width="56.85579282560631" opacity="0.33763546454965576" transform="matrix(0.7281041127789863,-0.6854665571377827,0.6854665571377827,0.7281041127789863,-55.810258043725895,-89.43488239994687)" fill="#edebfc" filter="url(#bbburst-blur-2)"></use><use xlink:href="#bbburst-shape-1" width="39.84282289813975" opacity="0.3568869922914798" transform="matrix(0.9358006773299896,-0.3525295623188679,0.3525295623188679,0.9358006773299896,479.3727477201744,360.211518456585)" fill="#d7ceff" filter="url(#bbburst-blur-2)"></use><use xlink:href="#bbburst-shape-1" width="38.31101973465189" opacity="0.6331384623397762" transform="matrix(0.8976302297810901,0.4407493285112837,-0.4407493285112837,0.8976302297810901,500.66978401782364,298.735636898216)" fill="#edebfc" filter="url(#bbburst-blur-1)"></use><use xlink:href="#bbburst-shape-1" width="23.929180102387956" opacity="0.8556515665554915" transform="matrix(0.7313845334452208,0.6819652954785285,-0.6819652954785285,0.7313845334452208,366.42191610042426,397.5784601501103)" fill="#edebfc"></use><use xlink:href="#bbburst-shape-1" width="31.692591060481043" opacity="0.7425173479572753" transform="matrix(0.9861726843403037,-0.1657209602344846,0.1657209602344846,0.9861726843403037,171.85672817779977,364.6040247510751)" fill="#32114e"></use><use xlink:href="#bbburst-shape-1" width="56.2640785943716" opacity="0.42488500794410744" transform="matrix(0.9113160246306143,0.4117075457791046,-0.4117075457791046,0.9113160246306143,576.5769835969115,50.73152754395477)" fill="#d7ceff" filter="url(#bbburst-blur-2)"></use><use xlink:href="#bbburst-shape-1" width="49.4090925168802" opacity="0.4035472542457095" transform="matrix(0.9070025627263915,0.4211251016120487,-0.4211251016120487,0.9070025627263915,215.3337501346805,-165.55810698111398)" fill="#7c7c7c" filter="url(#bbburst-blur-2)"></use><use xlink:href="#bbburst-shape-1" width="38.99636615677902" opacity="0.7937827593685912" transform="matrix(0.9846027731264934,-0.17480669080907366,0.17480669080907366,0.9846027731264934,24.853425017843634,237.7521333079382)" fill="#edebfc"></use><use xlink:href="#bbburst-shape-1" width="82.66997113811064" opacity="0.2835852949492096" transform="matrix(0.9805495234216428,-0.19627183220622665,0.19627183220622665,0.9805495234216428,307.22968131808113,-159.81685497426386)" fill="#32114e" filter="url(#bbburst-blur-2)"></use><use xlink:href="#bbburst-shape-1" width="20.171186485479396" opacity="0.8565248192495376" transform="matrix(0.910257727715628,0.41404211033901095,-0.41404211033901095,0.910257727715628,295.31577884670645,395.7635908823748)" fill="#d7ceff"></use><use xlink:href="#bbburst-shape-1" width="36.48709993087507" opacity="0.7217396821836299" transform="matrix(0.9460855177182532,-0.32391695411599686,0.32391695411599686,0.9460855177182532,100.592817749028,300.16228759194786)" fill="#edebfc"></use><use xlink:href="#bbburst-shape-1" width="21.38982722722487" opacity="0.9044624359975983" transform="matrix(0.8766987324296095,0.48103984508179354,-0.48103984508179354,0.8766987324296095,248.83074967754158,374.9379997870848)" fill="#32114e"></use><use xlink:href="#bbburst-shape-1" width="17.656430005778308" opacity="0.9005329779091769" transform="matrix(0.7613824427764911,0.6483029969325325,-0.6483029969325325,0.7613824427764911,348.1917921936779,462.30030832656314)" fill="#d7ceff"></use><use xlink:href="#bbburst-shape-1" width="62.79998299246218" opacity="0.5115266261065782" transform="matrix(0.8736935262388122,-0.48647674374875294,0.48647674374875294,0.8736935262388122,214.9590196868381,247.4976638345301)" fill="#7c7c7c" filter="url(#bbburst-blur-1)"></use><use xlink:href="#bbburst-shape-1" width="42.58897338841309" opacity="0.6694763556277918" transform="matrix(0.9934587994208085,-0.11419112861061363,0.11419112861061363,0.9934587994208085,-16.151409423853266,78.48662638093265)" fill="#32114e"></use><use xlink:href="#bbburst-shape-1" width="43.20810499727381" opacity="0.24518369104352378" transform="matrix(0.9747708685714813,0.2232078712420327,-0.2232078712420327,0.9747708685714813,808.2605834795634,256.745991467781)" fill="#7c7c7c" filter="url(#bbburst-blur-3)"></use><use xlink:href="#bbburst-shape-1" width="18.780138239002877" opacity="0.9351554659045306" transform="matrix(0.998466258968761,0.0553636135103834,-0.0553636135103834,0.998466258968761,33.047814766102256,338.5258998840897)" fill="#32114e"></use><use xlink:href="#bbburst-shape-1" width="69.21328180730299" opacity="0.021255508795812506" transform="matrix(0.9675888875505787,0.2525306806877802,-0.2525306806877802,0.9675888875505787,790.5060577431632,-255.39288018228496)" fill="#edebfc" filter="url(#bbburst-blur-3)"></use><use xlink:href="#bbburst-shape-1" width="47.01195865196487" opacity="0.610884532257865" transform="matrix(0.9583523896710258,0.28558833521667937,-0.28558833521667937,0.9583523896710258,402.68056369672865,176.1315915772405)" fill="#32114e" filter="url(#bbburst-blur-1)"></use><use xlink:href="#bbburst-shape-1" width="66.6623947940299" opacity="0.17555438364575882" transform="matrix(0.9589205836533597,-0.28367466267874525,0.28367466267874525,0.9589205836533597,580.7029265804717,35.489825479150284)" fill="#7c7c7c" filter="url(#bbburst-blur-3)"></use><use xlink:href="#bbburst-shape-1" width="21.9412893371108" opacity="0.8865706906458624" transform="matrix(0.901697014987385,-0.4323684692051903,0.4323684692051903,0.901697014987385,-152.2117942658217,334.8705708450787)" fill="#edebfc"></use><use xlink:href="#bbburst-shape-1" width="44.24975883380419" opacity="0.6008574676722348" transform="matrix(0.9593613005416134,-0.28218060709960946,0.28218060709960946,0.9593613005416134,27.016992047119857,57.36591572106806)" fill="#7c7c7c" filter="url(#bbburst-blur-1)"></use><use xlink:href="#bbburst-shape-1" width="22.49435237568822" opacity="0.8038726288857767" transform="matrix(0.9336098006066451,-0.3582914179982831,0.3582914179982831,0.9336098006066451,39.057500944629595,394.98493243272844)" fill="#32114e"></use><use xlink:href="#bbburst-shape-1" width="27.36008137311544" opacity="0.7623461836403057" transform="matrix(0.9299074598287529,0.3677935781859659,-0.3677935781859659,0.9299074598287529,179.03754343757265,189.6174371918035)" fill="#d7ceff"></use><use xlink:href="#bbburst-shape-1" width="48.95002015007713" opacity="0.5726543916343317" transform="matrix(0.9988502091543272,-0.04794016762962798,0.04794016762962798,0.9988502091543272,229.57274759355664,73.07787099781143)" fill="#7c7c7c" filter="url(#bbburst-blur-1)"></use><use xlink:href="#bbburst-shape-1" width="43.24171262722934" opacity="0.5743976813772103" transform="matrix(0.8691777046244767,-0.4944998663131527,0.4944998663131527,0.8691777046244767,205.02802681683391,404.78624702182464)" fill="#edebfc" filter="url(#bbburst-blur-1)"></use><use xlink:href="#bbburst-shape-1" width="47.26737361226707" opacity="0.4725938949236538" transform="matrix(0.722758148986604,0.6911010476576186,-0.6911010476576186,0.722758148986604,778.0159850965024,399.1693934135858)" fill="#32114e" filter="url(#bbburst-blur-1)"></use><use xlink:href="#bbburst-shape-1" width="28.366036641892265" opacity="0.6694485953648552" transform="matrix(0.8085347311443639,0.5884484586888737,-0.5884484586888737,0.8085347311443639,552.0006817504535,428.17121742943743)" fill="#d7ceff"></use><use xlink:href="#bbburst-shape-1" width="86.34586000223092" opacity="0.09676582560370417" transform="matrix(0.7725083117381117,0.635004652184165,-0.635004652184165,0.7725083117381117,774.5558641493253,-249.73440634007324)" fill="#32114e" filter="url(#bbburst-blur-3)"></use><use xlink:href="#bbburst-shape-1" width="49.44864615081522" opacity="0.4826568015331908" transform="matrix(0.7377493815035596,0.6750746996378366,-0.6750746996378366,0.7377493815035596,429.4431725958158,2.3883286569442816)" fill="#7c7c7c" filter="url(#bbburst-blur-1)"></use><use xlink:href="#bbburst-shape-1" width="60.31071371492861" opacity="0.4409743481665158" transform="matrix(0.9041288139026281,-0.4272599769122155,0.4272599769122155,0.9041288139026281,116.74455444705873,-10.606688472821418)" fill="#d7ceff" filter="url(#bbburst-blur-2)"></use><use xlink:href="#bbburst-shape-1" width="16.57072341391401" opacity="0.9415113945406198" transform="matrix(0.8972379354125328,0.441547378269485,-0.441547378269485,0.8972379354125328,223.41303112005988,415.57456567948515)" fill="#32114e"></use><use xlink:href="#bbburst-shape-1" width="38.24410322746457" opacity="0.713020809895285" transform="matrix(0.8921874011011306,0.4516654085895999,-0.4516654085895999,0.8921874011011306,367.8310987864529,232.93870732949932)" fill="#7c7c7c"></use></svg>
